<?xml version="1.0" encoding="UTF-8"?>
<svg version="1.1" xmlns="http://www.w3.org/2000/svg" width="1026" height="141">
<path d="M0 0 C2.57576014 -0.00136001 5.15152008 -0.00314328 7.72727966 -0.00531006 C13.91445747 -0.00969197 20.10162296 -0.00882646 26.28880119 -0.00589742 C31.31997146 -0.00361628 36.35113833 -0.00334242 41.38230896 -0.00442123 C42.10497057 -0.00457447 42.82763219 -0.0047277 43.57219264 -0.00488558 C45.04117191 -0.00520537 46.51015118 -0.00552958 47.97913045 -0.00585817 C61.65738863 -0.00868984 75.33564005 -0.00546087 89.01389712 -0.0000578 C100.72134493 0.00442346 112.42878283 0.00361897 124.13623047 -0.00097656 C137.79854892 -0.00633707 151.46086151 -0.00843132 165.12318087 -0.0053643 C166.58112876 -0.0050458 168.03907665 -0.00473143 169.49702454 -0.00442123 C170.21403734 -0.00426696 170.93105014 -0.00411268 171.6697906 -0.00395373 C176.6964217 -0.00309415 181.72304904 -0.00453904 186.74967957 -0.00690079 C193.51328834 -0.01000958 200.27687555 -0.00777384 207.04048347 -0.00200653 C209.51557954 -0.00068853 211.9906772 -0.00105668 214.46577263 -0.0032692 C217.85387103 -0.00601806 221.24191021 -0.00255439 224.63000488 0.00241089 C226.08390381 -0.00093519 226.08390381 -0.00093519 227.56717443 -0.00434887 C233.4793971 0.01235928 239.30397586 0.34844171 245.19072664 0.90031493 C249.08229233 1.23315307 252.95808877 1.29664325 256.86181641 1.31884766 C258.08462563 1.33128761 258.08462563 1.33128761 259.33213806 1.34397888 C261.08178036 1.36119793 262.83144339 1.37641163 264.58111954 1.38975525 C267.38908265 1.41121488 270.19694944 1.4382087 273.00485229 1.46643066 C279.00124135 1.52566329 284.99768225 1.57774576 290.99414062 1.62939453 C362.27980777 2.25223793 362.27980777 2.25223793 395.04684448 4.74243164 C401.15707821 5.20675336 407.26908566 5.64682635 413.38085938 6.09033203 C414.60823318 6.18002258 415.83560699 6.26971313 417.10017395 6.36212158 C427.85609406 7.14281521 438.61711497 7.81124206 449.38201904 8.45388794 C465.97713052 9.44976087 482.56401211 10.54927871 499.14041138 11.82080078 C501.24013393 11.98084164 503.34012253 12.13744193 505.44039917 12.29003906 C519.55036159 13.32170484 533.367632 15.15968168 547.29154968 17.66668701 C549.75374488 18.10867965 552.21793132 18.53605082 554.68383789 18.95678711 C558.75140175 19.65200011 562.81090224 20.38218665 566.86914062 21.12939453 C567.66271973 21.27344727 568.45629883 21.4175 569.27392578 21.56591797 C578.72511358 23.29762892 587.87914224 25.27067903 596.98901367 28.34375 C601.861236 29.94174529 606.68130943 30.85559694 611.74414062 31.62939453 C621.04824893 33.10987933 628.82501185 35.58813671 634.68554688 43.32470703 C638.91262952 49.76996176 639.78399855 55.5871356 638.86914062 63.12939453 C637.04120654 70.69704163 632.23473254 75.83416504 625.86914062 80.12939453 C611.14060915 86.23489614 590.70006151 80.87599738 576.50195312 75.39111328 C564.4143054 71.19293025 551.372156 69.62177835 538.74804688 67.84033203 C535.2590096 67.3468165 531.78934649 66.77829862 528.31713867 66.17822266 C522.16932645 65.15048687 516.01448491 64.34383661 509.82226562 63.63720703 C508.1479245 63.44555466 508.1479245 63.44555466 506.4397583 63.25003052 C494.99492462 61.97679602 483.53009361 61.06775211 472.04492188 60.24902344 C468.60561084 60.00342839 465.16706709 59.7486655 461.72851562 59.49267578 C450.40380499 58.66148026 439.08798512 57.96445144 427.74261475 57.4937439 C418.43316316 57.09548715 409.15576843 56.37996014 399.86914062 55.62939453 C397.37921202 55.43162613 394.88920262 55.23490516 392.39916992 55.03845215 C390.8784197 54.91811667 389.35773919 54.79689387 387.8371582 54.67443848 C385.514807 54.48845502 383.19198931 54.30905623 380.86914062 54.12939453 C379.85680359 54.04733765 378.84446655 53.96528076 377.80145264 53.8807373 C368.30977519 53.14763819 358.83626199 52.82276172 349.32226562 52.59814453 C348.49288734 52.57760513 347.66350906 52.55706573 346.80899811 52.53590393 C323.45210185 51.96102223 300.08948127 51.7842288 276.72705078 51.57714844 C271.92933351 51.53432971 267.13167363 51.48717157 262.33402252 51.43751526 C259.68255861 51.41142239 257.03108693 51.39037638 254.37957764 51.36950684 C252.74816608 51.35289999 251.11675719 51.33602781 249.48535156 51.31884766 C248.7726561 51.31466324 248.05996063 51.31047882 247.32566833 51.3061676 C243.44439505 51.25928802 239.63349669 51.02566359 235.77169704 50.62786293 C230.18898132 50.11027999 224.66863913 49.98911131 219.0650177 50.00241089 C218.03533031 50.0008509 217.00564291 49.99929091 215.94475287 49.99768364 C212.52475845 49.99372331 209.10480913 49.99684404 205.68481445 50 C203.21970087 49.99864365 200.75458749 49.9968624 198.28947449 49.99468994 C192.30381916 49.99061232 186.31818124 49.99119755 180.3325266 49.99410258 C175.45694528 49.99636975 170.58136745 49.99666345 165.70578575 49.99557877 C165.00926374 49.99542553 164.31274172 49.9952723 163.59511298 49.99511442 C162.1795494 49.99479466 160.76398583 49.99447044 159.34842225 49.99414183 C146.09001823 49.99129405 132.83162113 49.99456162 119.57321825 49.9999422 C108.24745777 50.00439678 96.92170756 50.00364408 85.59594727 49.99902344 C72.40205027 49.99364305 59.20815936 49.99158208 46.01426142 49.9946357 C44.60020777 49.99495419 43.18615411 49.99526856 41.77210045 49.99557877 C40.72890737 49.99581018 40.72890737 49.99581018 39.66463969 49.99604627 C34.81316112 49.99690204 29.96168647 49.99546874 25.11020851 49.99309921 C18.54295486 49.98996192 11.97571728 49.99227144 5.40846443 49.99799347 C3.01743857 49.99929971 0.62641107 49.99896402 -1.76461411 49.9967308 C-13.59867353 49.98670987 -25.42018866 50.08774538 -37.24751282 50.51248169 C-38.71487642 50.55801691 -38.71487642 50.55801691 -40.21188372 50.60447204 C-45.8030017 50.83516347 -50.74738873 51.60200739 -56.13085938 53.12939453 C-57.57148684 53.34890606 -59.01855558 53.53483541 -60.47070312 53.65673828 C-61.58590332 53.75921875 -61.58590332 53.75921875 -62.72363281 53.86376953 C-63.49739258 53.93080078 -64.27115234 53.99783203 -65.06835938 54.06689453 C-71.24402308 54.6525385 -77.29206566 55.44652564 -83.38085938 56.62939453 C-91.06751456 58.1044359 -98.74323978 58.75527438 -106.54077148 59.35986328 C-113.32267755 59.90921512 -119.94633253 60.81679933 -126.63891602 62.02612305 C-131.75000219 62.93867361 -136.83973851 63.56171516 -142.00585938 64.06689453 C-148.31826143 64.69683518 -154.43030824 65.7345805 -160.63085938 67.06689453 C-167.98261625 68.62612111 -175.2840403 69.70675451 -182.75585938 70.50439453 C-194.00827482 71.70820612 -205.20660479 73.19366594 -216.40985107 74.78717041 C-218.2937693 75.05507797 -220.17792269 75.32133753 -222.06231689 75.58587646 C-224.73429227 75.96159058 -227.4053342 76.34334153 -230.07617188 76.72705078 C-231.26853455 76.89414803 -231.26853455 76.89414803 -232.48498535 77.06462097 C-237.47135273 77.79156193 -242.25014587 78.87920107 -247.13085938 80.12939453 C-256.1428903 81.08704882 -263.67225042 80.58255798 -271.13085938 75.12939453 C-276.06069112 70.72289949 -279.54817582 65.45276264 -280.44726562 58.78173828 C-280.81653065 51.07481977 -278.44528714 44.92995473 -273.81835938 38.81689453 C-267.6251684 32.62370355 -261.27316102 31.19931817 -252.88085938 29.81689453 C-251.71425781 29.61596191 -250.54765625 29.4150293 -249.34570312 29.20800781 C-233.09169161 26.49968112 -216.74024674 24.38602998 -200.40960693 22.20030212 C-191.64341061 21.02599895 -182.88083668 19.83374818 -174.13085938 18.54345703 C-173.34855957 18.43013031 -172.56625977 18.31680359 -171.76025391 18.20004272 C-167.17083384 17.51248706 -162.67413681 16.6078523 -158.1512146 15.57183838 C-155.70318134 15.03573599 -153.26380583 14.67557993 -150.77539062 14.38330078 C-149.83453613 14.26978271 -148.89368164 14.15626465 -147.92431641 14.03930664 C-146.94060059 13.92466064 -145.95688477 13.81001465 -144.94335938 13.69189453 C-142.81171465 13.43519485 -140.68020673 13.17735694 -138.54882812 12.91845703 C-137.47810059 12.78858398 -136.40737305 12.65871094 -135.30419922 12.52490234 C-130.44809199 11.91966356 -125.60235134 11.24418995 -120.75585938 10.56689453 C-113.21822971 9.51601068 -105.67788017 8.62312726 -98.109375 7.82836914 C-94.4398822 7.43028729 -90.85690715 6.93868924 -87.25585938 6.12939453 C-81.36769129 4.80945493 -75.35142549 4.41152983 -69.34814453 3.91455078 C-68.51976074 3.84107422 -67.69137695 3.76759766 -66.83789062 3.69189453 C-66.10030518 3.63130859 -65.36271973 3.57072266 -64.6027832 3.50830078 C-62.02686875 3.1888717 -62.02686875 3.1888717 -59.27272797 2.14426994 C-53.76441555 0.55517423 -48.08221046 0.65990993 -42.38903809 0.51248169 C-41.15168081 0.47486603 -39.91432353 0.43725037 -38.63947058 0.39849484 C-25.75990352 0.03627132 -12.88371206 -0.01168401 0 0 Z " fill="#B5E51D" transform="translate(329.130859375,18.87060546875)"/>
<path d="M0 0 C0.85015458 -0.00322445 1.70030916 -0.00644889 2.576226 -0.00977105 C3.51053801 -0.00822245 4.44485002 -0.00667385 5.40747452 -0.00507832 C6.39992463 -0.00734387 7.39237475 -0.00960943 8.41489911 -0.01194364 C11.75636903 -0.01829766 15.09779853 -0.01745335 18.43927383 -0.01662922 C20.82914152 -0.01962003 23.21900872 -0.02302237 25.60887527 -0.02680683 C31.43886458 -0.03474241 37.26884154 -0.03786212 43.09883597 -0.03841921 C47.84310743 -0.03889447 52.58737556 -0.04094977 57.33164597 -0.04411983 C70.79563273 -0.05293242 84.25961152 -0.05753885 97.72360119 -0.05678936 C98.44977805 -0.0567494 99.1759549 -0.05670945 99.92413712 -0.05666828 C100.65120657 -0.0566274 101.37827603 -0.05658652 102.1273779 -0.0565444 C113.8829124 -0.05613887 125.63841473 -0.06568327 137.39393994 -0.07980665 C149.47733223 -0.09420859 161.56070888 -0.10107458 173.64410996 -0.10021287 C180.42250185 -0.09988198 187.20086011 -0.10258108 193.97924423 -0.11339092 C200.36498941 -0.12311498 206.75066391 -0.12312163 213.13641167 -0.11587429 C215.47154787 -0.11483346 217.80668856 -0.11716129 220.14181709 -0.12323475 C232.21434764 -0.15258179 243.931939 0.02745824 255.8465004 2.12863445 C255.8465004 2.78863445 255.8465004 3.44863445 255.8465004 4.12863445 C255.29488173 4.12825473 254.74326305 4.12787501 254.17492867 4.12748379 C221.38120935 4.10503854 188.58749197 4.08791412 155.79376668 4.07756912 C151.84405941 4.07631862 147.89435217 4.07502428 143.94464493 4.07370281 C143.15842746 4.0734405 142.37221 4.07317819 141.56216776 4.07290793 C128.8813542 4.06857294 116.20054523 4.06069749 103.51973438 4.05148166 C90.47927567 4.04208446 77.43881935 4.03656608 64.39835739 4.03454596 C56.37096718 4.03318325 48.34358997 4.02890135 40.31620377 4.02071799 C34.12995589 4.01473809 27.94371764 4.01419067 21.75746727 4.01552677 C19.2422827 4.0152546 16.72709757 4.01330551 14.21191597 4.00942898 C2.01663643 3.99157578 -10.15749965 4.08189853 -22.34417343 4.57322979 C-23.80486142 4.6314231 -23.80486142 4.6314231 -25.29505825 4.69079202 C-30.63045279 4.93166931 -35.86390831 5.38830041 -41.1534996 6.12863445 C-40.8234996 5.46863445 -40.4934996 4.80863445 -40.1534996 4.12863445 C-38.8334996 4.12863445 -37.5134996 4.12863445 -36.1534996 4.12863445 C-36.1534996 3.46863445 -36.1534996 2.80863445 -36.1534996 2.12863445 C-35.29071396 2.1035783 -34.42792831 2.07852215 -33.53899765 2.05270672 C-30.33526192 1.95752061 -27.13168424 1.85829002 -23.92815781 1.75632 C-22.54213978 1.71303227 -21.15607054 1.67135282 -19.76995468 1.63132 C-17.77658162 1.57346861 -15.78339395 1.50933669 -13.79021835 1.4450407 C-12.5909874 1.40838299 -11.39175644 1.37172527 -10.15618515 1.33395672 C-6.60896453 1.09139939 -3.58529474 0.00343624 0 0 Z " fill="#B5E030" transform="translate(314.1534996032715,64.87136554718018)"/>
<path d="M0 0 C12.58159913 0.1089936 25.1631573 0.22188046 37.7446804 0.33933926 C43.5908403 0.3938041 49.43700528 0.44707458 55.28320312 0.49731445 C126.24159112 1.10998931 126.24159112 1.10998931 159.19143677 3.61413574 C165.23197679 4.07306452 171.27431879 4.5073157 177.31640625 4.9453125 C178.53345749 5.03417725 179.75050873 5.12304199 181.00444031 5.21459961 C193.85167416 6.14726443 206.70583882 6.9595943 219.5625 7.75 C220.61262268 7.81475525 221.66274536 7.8795105 222.74468994 7.94622803 C228.49627382 8.3005867 234.24803366 8.65190638 240 9 C240 9.33 240 9.66 240 10 C227.89989545 10.05813365 215.81352134 9.92990095 203.71704102 9.62768555 C201.01262536 9.56127527 198.30810401 9.50226544 195.60351562 9.44335938 C193.87238499 9.40148741 192.14126467 9.35918665 190.41015625 9.31640625 C189.20565575 9.29133751 189.20565575 9.29133751 187.9768219 9.26576233 C184.74984516 9.17907906 182.08160723 9.02720241 179 8 C177.65178144 7.86651983 176.2988791 7.77678205 174.9453125 7.71875 C174.16542969 7.68136719 173.38554688 7.64398437 172.58203125 7.60546875 C171.36580078 7.55326172 171.36580078 7.55326172 170.125 7.5 C168.52328197 7.43058365 166.92170745 7.35775816 165.3203125 7.28125 C164.61148926 7.25095703 163.90266602 7.22066406 163.17236328 7.18945312 C161 7 161 7 158.67962646 6.5 C156.04665791 6.00870605 153.62863173 5.8496961 150.95361328 5.81054688 C149.97554718 5.79382935 148.99748108 5.77711182 147.98977661 5.7598877 C146.94385345 5.74631226 145.8979303 5.73273682 144.8203125 5.71875 C143.73418671 5.70034058 142.64806091 5.68193115 141.52902222 5.66296387 C138.06106887 5.60432164 134.59306668 5.55147498 131.125 5.5 C126.56500565 5.43211084 122.00515846 5.35840175 117.4453125 5.28125 C116.40343781 5.26767456 115.36156311 5.25409912 114.28811646 5.2401123 C113.30374603 5.22339478 112.31937561 5.20667725 111.30517578 5.18945312 C110.44755646 5.17692505 109.58993713 5.16439697 108.70632935 5.15148926 C106 5 106 5 102.77461243 4.50099182 C98.25983061 3.90175976 93.84975015 3.82436518 89.30102539 3.79467773 C88.35390686 3.78477814 87.40678833 3.77487854 86.43096924 3.76467896 C83.31988979 3.73324914 80.20879511 3.70838018 77.09765625 3.68359375 C74.93289304 3.66300821 72.7681337 3.64201133 70.6033783 3.62062073 C64.92022856 3.56556527 59.23704355 3.51608342 53.55383301 3.46777344 C47.74874756 3.41743739 41.943713 3.36181464 36.13867188 3.30664062 C24.75915812 3.19926132 13.37960007 3.09777183 2 3 C2 2.34 2 1.68 2 1 C1.34 0.67 0.68 0.34 0 0 Z " fill="#C8E764" transform="translate(565,20)"/>
<path d="M0 0 C2.59523009 0.00028309 5.19046026 0.00012176 7.78569031 -0.0004425 C13.30569199 -0.00095965 18.82568159 0.00210083 24.34568024 0.00779533 C32.32606358 0.01602251 40.30644125 0.01853685 48.28682837 0.01978333 C61.24346829 0.02195652 74.20010182 0.0285689 87.15673828 0.03808594 C99.72151661 0.04730538 112.28629318 0.05436386 124.85107422 0.05859375 C126.01840959 0.05898784 126.01840959 0.05898784 127.20932749 0.05938988 C131.11456045 0.06069519 135.01979343 0.06195883 138.92502642 0.06320179 C171.17625924 0.07352029 203.42748419 0.09109057 235.67871094 0.11352539 C235.67871094 0.44352539 235.67871094 0.77352539 235.67871094 1.11352539 C149.54871094 1.11352539 63.41871094 1.11352539 -25.32128906 1.11352539 C-25.32128906 1.77352539 -25.32128906 2.43352539 -25.32128906 3.11352539 C-26.09617676 3.13334473 -26.87106445 3.15316406 -27.66943359 3.17358398 C-46.00833464 3.56003976 -46.00833464 3.56003976 -64.19238281 5.70336914 C-70.20906272 6.4920725 -76.26484962 6.26620874 -82.32128906 6.11352539 C-82.32128906 5.78352539 -82.32128906 5.45352539 -82.32128906 5.11352539 C-81.7520874 5.06341309 -81.18288574 5.01330078 -80.59643555 4.96166992 C-77.98320799 4.72760201 -75.37104968 4.48313959 -72.75878906 4.23852539 C-71.86353516 4.15989258 -70.96828125 4.08125977 -70.04589844 4.00024414 C-69.16611328 3.91645508 -68.28632813 3.83266602 -67.37988281 3.74633789 C-66.5786499 3.67302246 -65.77741699 3.59970703 -64.9519043 3.52416992 C-62.24130185 3.17990842 -62.24130185 3.17990842 -59.45249557 2.12647915 C-53.95208663 0.5386409 -48.27659361 0.6432236 -42.59136963 0.49562073 C-41.35433548 0.45797814 -40.11730134 0.42033555 -38.84278131 0.38155228 C-25.89531654 0.01784656 -12.95155932 -0.02024489 0 0 Z " fill="#D7EE91" transform="translate(329.3212890625,18.886474609375)"/>
<path d="M0 0 C96.36 0 192.72 0 292 0 C292 0.66 292 1.32 292 2 C291.44838133 1.99962028 290.89676266 1.99924056 290.32842827 1.99884933 C257.53470895 1.97640408 224.74099158 1.95927967 191.94726628 1.94893467 C187.99755902 1.94768417 184.04785177 1.94638983 180.09814453 1.94506836 C179.31192707 1.94480605 178.5257096 1.94454374 177.71566737 1.94427348 C165.0348538 1.93993849 152.35404484 1.93206304 139.67323399 1.9228472 C126.63277528 1.91345001 113.59231895 1.90793163 100.55185699 1.90591151 C92.52446679 1.9045488 84.49708958 1.90026689 76.46970338 1.89208353 C70.2834555 1.88610364 64.09721725 1.88555621 57.91096687 1.88689232 C55.3957823 1.88662015 52.88059717 1.88467106 50.36541557 1.88079453 C38.17013603 1.86294133 25.99599996 1.95326408 13.80932617 2.44459534 C12.34863819 2.50278864 12.34863819 2.50278864 10.85844135 2.56215757 C5.52304681 2.80303486 0.2895913 3.25966596 -5 4 C-4.67 3.34 -4.34 2.68 -4 2 C-2.68 2 -1.36 2 0 2 C0 1.34 0 0.68 0 0 Z " fill="#D7F381" transform="translate(278,67)"/>
<path d="M0 0 C12.02839504 -0.12190941 24.04110737 0.01949404 36.06420898 0.37332153 C37.52396046 0.41618227 38.98376059 0.45741607 40.44360352 0.49703979 C42.50947375 0.55401821 44.57502205 0.61770347 46.640625 0.68359375 C47.84235352 0.72025146 49.04408203 0.75690918 50.28222656 0.79467773 C53 1 53 1 54 2 C55.40197402 2.14421154 56.81042831 2.22686124 58.21875 2.28125 C59.06824219 2.31863281 59.91773438 2.35601562 60.79296875 2.39453125 C61.68628906 2.42933594 62.57960938 2.46414062 63.5 2.5 C65.26059038 2.56859443 67.02102741 2.64128952 68.78125 2.71875 C69.56564453 2.74904297 70.35003906 2.77933594 71.15820312 2.81054688 C73 3 73 3 74 4 C77.11786005 4.44755772 80.23452977 4.81954893 83.36523438 5.16210938 C88.5963271 5.79106774 88.5963271 5.79106774 91 7.03515625 C94.09027715 8.52597355 97.3170706 8.38762625 100.6875 8.5 C106.67570915 8.77645203 112.18541355 9.44252149 118 11 C118 11.66 118 12.32 118 13 C118.77085937 12.96519531 119.54171875 12.93039063 120.3359375 12.89453125 C121.84027344 12.85392578 121.84027344 12.85392578 123.375 12.8125 C124.87160156 12.76029297 124.87160156 12.76029297 126.3984375 12.70703125 C127.25695312 12.80371094 128.11546875 12.90039062 129 13 C129.99 14.485 129.99 14.485 131 16 C123.49314383 15.17132107 116.05413468 14.33361108 108.6875 12.625 C73.2097647 4.78918499 36.16825416 3.36067671 0 1 C0 0.67 0 0.34 0 0 Z " fill="#CDEA6E" transform="translate(771,76)"/>
<path d="M0 0 C17.54999972 -0.0233445 35.09999461 -0.04098682 52.65000629 -0.05181217 C60.7984958 -0.05697182 68.94697567 -0.06400825 77.09545898 -0.07543945 C84.19640124 -0.08539636 91.29733652 -0.09185584 98.39828557 -0.09408849 C102.15931925 -0.09539388 105.92033296 -0.09846893 109.68136024 -0.10573006 C113.87653114 -0.1137639 118.07166715 -0.11399048 122.2668457 -0.11352539 C123.51840958 -0.11712067 124.76997345 -0.12071594 126.0594635 -0.12442017 C127.19949829 -0.1230455 128.33953308 -0.12167084 129.51411438 -0.12025452 C130.50688542 -0.12117631 131.49965647 -0.1220981 132.52251148 -0.12304783 C135 0 135 0 138 1 C140.05893621 1.22325814 142.12233653 1.40705759 144.1875 1.5625 C145.27417969 1.64628906 146.36085938 1.73007813 147.48046875 1.81640625 C148.72763672 1.90728516 148.72763672 1.90728516 150 2 C150 2.66 150 3.32 150 4 C144.54492678 4.11312364 139.16611312 3.97163357 133.72680664 3.52905273 C125.31953347 2.90955355 116.92154075 2.67066053 108.49609375 2.47265625 C107.66805174 2.45223833 106.84000973 2.43182041 105.98687553 2.41078377 C85.32471744 1.90373029 64.65910396 1.67864256 43.9921875 1.46777344 C39.00192987 1.41620744 34.01170947 1.36124996 29.02148438 1.30664062 C19.34768851 1.20124623 9.67385939 1.09938115 0 1 C0 0.67 0 0.34 0 0 Z " fill="#CFEB72" transform="translate(570,69)"/>
<path d="M0 0 C9.74911437 -0.21195738 19.41653122 0.44877466 29.13671875 1.09375 C30.86975641 1.2061599 32.60281447 1.31825586 34.33589172 1.43005371 C38.86185113 1.72285094 43.38752377 2.01986744 47.91314697 2.31781006 C52.54544569 2.62201007 57.17800704 2.92215457 61.81054688 3.22265625 C70.8739572 3.81117003 79.93706932 4.40414846 89 5 C89 5.33 89 5.66 89 6 C76.89989545 6.05813365 64.81352134 5.92990095 52.71704102 5.62768555 C50.01262536 5.56127527 47.30810401 5.50226544 44.60351562 5.44335938 C42.87238499 5.40148741 41.14126467 5.35918665 39.41015625 5.31640625 C38.20565575 5.29133751 38.20565575 5.29133751 36.9768219 5.26576233 C33.74984516 5.17907906 31.08160723 5.02720241 28 4 C25.14332781 3.81876098 22.29676933 3.67604604 19.4375 3.5625 C12.77036869 3.25399692 6.50771209 2.57444647 0 1 C0 0.67 0 0.34 0 0 Z " fill="#CEEA73" transform="translate(716,24)"/>
<path d="M0 0 C1.134375 0.00902344 2.26875 0.01804687 3.4375 0.02734375 C4.283125 0.03894531 5.12875 0.05054687 6 0.0625 C3.64526082 2.41723918 2.7513211 2.44676086 -0.47265625 2.87890625 C-1.37306641 3.00330078 -2.27347656 3.12769531 -3.20117188 3.25585938 C-4.14541016 3.37767578 -5.08964844 3.49949219 -6.0625 3.625 C-6.97966797 3.75068359 -7.89683594 3.87636719 -8.84179688 4.00585938 C-13.92865098 4.69444133 -19.00575252 5.28601556 -24.12280273 5.69897461 C-26.32480801 5.99997746 -26.32480801 5.99997746 -29 8.0625 C-32.00268555 8.28955078 -32.00268555 8.28955078 -35.63671875 8.2578125 C-37.58481445 8.24814453 -37.58481445 8.24814453 -39.57226562 8.23828125 C-40.94401307 8.2215706 -42.31575786 8.20464071 -43.6875 8.1875 C-45.07095718 8.17746674 -46.45442127 8.16834149 -47.83789062 8.16015625 C-51.22543452 8.13654967 -54.61263072 8.10362037 -58 8.0625 C-58 7.7325 -58 7.4025 -58 7.0625 C-52.02272748 6.22557489 -46.04534813 5.38941823 -40.06787109 4.55395508 C-38.03691749 4.26998361 -36.00599258 3.98580687 -33.97509766 3.70141602 C-31.04597479 3.29128135 -28.11674753 2.88189948 -25.1875 2.47265625 C-24.28821777 2.34657486 -23.38893555 2.22049347 -22.46240234 2.09059143 C-6.96128527 -0.07251339 -6.96128527 -0.07251339 0 0 Z " fill="#D1EB7A" transform="translate(226,27.9375)"/>
<path d="M0 0 C7.59 0 15.18 0 23 0 C23 0.33 23 0.66 23 1 C21.82566406 1.10957031 20.65132813 1.21914062 19.44140625 1.33203125 C11.4781933 2.10600084 3.60772055 2.97809974 -4.25 4.5 C-12.89865238 6.15167739 -21.57865532 6.83065484 -30.34765625 7.52734375 C-37.92424019 8.13579576 -45.46002909 9.04864797 -53 10 C-48.61209315 5.61209315 -41.02431774 5.69534299 -35.1015625 5.24609375 C-32.94527426 5.11436697 -32.94527426 5.11436697 -31 4 C-29.49182192 3.86042383 -27.97843684 3.77459447 -26.46484375 3.71875 C-25.57345703 3.68136719 -24.68207031 3.64398438 -23.76367188 3.60546875 C-21.87565647 3.53501068 -19.9876356 3.46469878 -18.09960938 3.39453125 C-17.20951172 3.35714844 -16.31941406 3.31976563 -15.40234375 3.28125 C-14.17245728 3.23581055 -14.17245728 3.23581055 -12.91772461 3.18945312 C-10.99254576 3.20393384 -10.99254576 3.20393384 -10 2 C-8.31391034 1.92794489 -6.62499341 1.91613932 -4.9375 1.9375 C-4.01839844 1.94652344 -3.09929687 1.95554687 -2.15234375 1.96484375 C-1.44207031 1.97644531 -0.73179687 1.98804687 0 2 C0 1.34 0 0.68 0 0 Z " fill="#C7E661" transform="translate(250,71)"/>
<path d="M0 0 C9.77493646 -0.24312402 19.45182513 0.48167119 29.1875 1.25 C30.02106018 1.31458405 30.85462036 1.37916809 31.71343994 1.44570923 C45.63766983 2.54024487 59.28481942 4.30350242 73 7 C73 7.33 73 7.66 73 8 C65.08 7.67 57.16 7.34 49 7 C49 6.34 49 5.68 49 5 C48.02804687 5.02320313 47.05609375 5.04640625 46.0546875 5.0703125 C37.5081494 5.20715816 29.07746371 4.89063485 20.5625 4.125 C19.66450684 4.04652832 18.76651367 3.96805664 17.84130859 3.88720703 C11.8000828 3.30724045 5.92716681 2.29873396 0 1 C0 0.67 0 0.34 0 0 Z " fill="#CDE874" transform="translate(806,30)"/>
<path d="M0 0 C-0.33 0.99 -0.66 1.98 -1 3 C-1.99902344 3.06058594 -2.99804688 3.12117188 -4.02734375 3.18359375 C-5.31769531 3.26738281 -6.60804688 3.35117187 -7.9375 3.4375 C-9.22527344 3.51871094 -10.51304687 3.59992187 -11.83984375 3.68359375 C-14.86023957 3.64919188 -14.86023957 3.64919188 -16 5 C-19.2098693 5.26998901 -22.41230859 5.44611437 -25.62890625 5.60546875 C-29.10944277 5.4970552 -29.10944277 5.4970552 -32 7 C-34.71247924 7.21367451 -37.40813549 7.3773322 -40.125 7.5 C-45.48303721 7.74942587 -50.68626338 8.22065196 -56 9 C-58.6793948 9.10751986 -61.31632049 9.0470821 -64 9 C-64 8.67 -64 8.34 -64 8 C-56.33329228 6.85153156 -48.6651137 5.71330181 -40.99584961 4.58203125 C-38.38938351 4.19634351 -35.78325738 3.80835076 -33.17749023 3.41796875 C-29.42259261 2.85584545 -25.66653298 2.30214171 -21.91015625 1.75 C-20.75354996 1.57500977 -19.59694366 1.40001953 -18.4052887 1.21972656 C-12.1935884 0.3156484 -6.27697079 -0.18589826 0 0 Z " fill="#CDE96F" transform="translate(144,40)"/>
<path d="M0 0 C5.445 0.495 5.445 0.495 11 1 C11 1.33 11 1.66 11 2 C3.63849234 3.06938761 -3.72416086 4.130479 -11.08838272 5.1810236 C-14.50792903 5.66910487 -17.92701735 6.16002396 -21.34521484 6.6574707 C-25.27581882 7.22935975 -29.20814157 7.78883082 -33.140625 8.34765625 C-34.36678528 8.52780777 -35.59294556 8.70795929 -36.85626221 8.89356995 C-37.99714294 9.05381149 -39.13802368 9.21405304 -40.31347656 9.37915039 C-41.81905121 9.59566002 -41.81905121 9.59566002 -43.3550415 9.81654358 C-45.87422647 9.99127625 -47.6184892 9.78023314 -50 9 C-48.906875 8.690625 -47.81375 8.38125 -46.6875 8.0625 C-44.44592006 7.41662103 -42.2130649 6.7376883 -40 6 C-36.57207508 5.74101721 -33.15005685 5.55758845 -29.71679688 5.39453125 C-25.72857028 5.25968513 -25.72857028 5.25968513 -22 4 C-19.3276379 3.86584528 -16.67749512 3.95681459 -14 4 C-14 3.34 -14 2.68 -14 2 C-9.38 2 -4.76 2 0 2 C0 1.34 0 0.68 0 0 Z " fill="#CEE977" transform="translate(136,87)"/>
<path d="M0 0 C16.17 0 32.34 0 49 0 C49 0.99 49 1.98 49 3 C32.57817766 3.31990563 16.36422171 2.34299844 0 1 C0 0.67 0 0.34 0 0 Z " fill="#C9E85F" transform="translate(721,73)"/>
<path d="M0 0 C6.93 0 13.86 0 21 0 C21 0.33 21 0.66 21 1 C19.93265625 1.09796875 18.8653125 1.1959375 17.765625 1.296875 C8.36519264 2.22101786 -0.79086293 3.5922582 -10.00878906 5.67871094 C-15.45721832 6.86627545 -20.42079574 7.16720892 -26 7 C-25.01 6.67 -24.02 6.34 -23 6 C-23 5.34 -23 4.68 -23 4 C-21.71802734 3.90912109 -21.71802734 3.90912109 -20.41015625 3.81640625 C-19.30542969 3.73261719 -18.20070312 3.64882812 -17.0625 3.5625 C-15.96035156 3.48128906 -14.85820312 3.40007812 -13.72265625 3.31640625 C-11.08890097 3.29581916 -11.08890097 3.29581916 -10 2 C-8.31391034 1.92794489 -6.62499341 1.91613932 -4.9375 1.9375 C-4.01839844 1.94652344 -3.09929687 1.95554687 -2.15234375 1.96484375 C-1.44207031 1.97644531 -0.73179687 1.98804687 0 2 C0 1.34 0 0.68 0 0 Z " fill="#C9E867" transform="translate(175,81)"/>
<path d="M0 0 C2.14576637 -0.02685938 4.29162645 -0.04633088 6.4375 -0.0625 C7.63246094 -0.07410156 8.82742188 -0.08570312 10.05859375 -0.09765625 C13 0 13 0 14 1 C15.40197402 1.14421154 16.81042831 1.22686124 18.21875 1.28125 C19.06824219 1.31863281 19.91773438 1.35601562 20.79296875 1.39453125 C22.13294922 1.44673828 22.13294922 1.44673828 23.5 1.5 C25.26059038 1.56859443 27.02102741 1.64128952 28.78125 1.71875 C29.56564453 1.74904297 30.35003906 1.77933594 31.15820312 1.81054688 C33 2 33 2 34 3 C35.51469448 3.23192865 37.03754562 3.41215238 38.5625 3.5625 C39.80193359 3.68818359 39.80193359 3.68818359 41.06640625 3.81640625 C41.70449219 3.87699219 42.34257813 3.93757813 43 4 C43 4.33 43 4.66 43 5 C39.47918442 5.02927632 35.95840061 5.04689119 32.4375 5.0625 C31.44685547 5.07087891 30.45621094 5.07925781 29.43554688 5.08789062 C23.08278749 5.10899614 17.1310221 5.06587986 11.0625 3 C7.3465563 1.78663063 3.88493921 1.40189026 0 1 C0 0.67 0 0.34 0 0 Z " fill="#C0E44D" transform="translate(811,77)"/>
<path d="M0 0 C0.96486328 0.27263672 0.96486328 0.27263672 1.94921875 0.55078125 C13.8547837 3.86260032 25.91389264 6.44506576 38 9 C36.02 9.99 36.02 9.99 34 11 C33.505 10.01 33.505 10.01 33 9 C32.07058594 9.02320313 31.14117188 9.04640625 30.18359375 9.0703125 C17.90509666 9.24956063 17.90509666 9.24956063 12 7 C12 6.34 12 5.68 12 5 C10.576875 5.061875 10.576875 5.061875 9.125 5.125 C6 5 6 5 4 3 C1.93125966 2.3574765 1.93125966 2.3574765 0 2 C0 1.34 0 0.68 0 0 Z " fill="#CEE978" transform="translate(914,44)"/>
<path d="M0 0 C4.80951915 4.28957113 7.52875592 8.20705981 8.3203125 14.578125 C8.60039267 21.26270498 7.2238998 26.17107403 4 32 C3.67 31.01 3.34 30.02 3 29 C3.33 28.34 3.66 27.68 4 27 C4.23029956 24.62876754 4.41119942 22.25258057 4.5625 19.875 C4.64628906 18.59367187 4.73007812 17.31234375 4.81640625 15.9921875 C4.87699219 15.00476563 4.93757812 14.01734375 5 13 C4.34 12.67 3.68 12.34 3 12 C2.40644386 9.35139573 2.25790731 6.70802678 2 4 C1.34 4 0.68 4 0 4 C0 2.68 0 1.36 0 0 Z " fill="#CAE965" transform="translate(960,59)"/>
<path d="M0 0 C9.9 0 19.8 0 30 0 C26.71348145 2.19101237 25.57098416 2.27661752 21.73828125 2.37890625 C20.70123047 2.41306641 19.66417969 2.44722656 18.59570312 2.48242188 C16.97051758 2.52206055 16.97051758 2.52206055 15.3125 2.5625 C8.47676953 2.75709681 1.77132063 3.00927473 -5 4 C-4.67 3.34 -4.34 2.68 -4 2 C-2.68 2 -1.36 2 0 2 C0 1.34 0 0.68 0 0 Z " fill="#C9E568" transform="translate(278,67)"/>
<path d="M0 0 C7.94410269 0.37705234 15.37831284 1.38264137 23.09765625 3.30078125 C26.39709563 4.09566638 29.63242479 4.60842149 33 5 C29.36736489 7.32488647 26.23314767 7.23961213 22 7 C21.67 6.67 21.34 6.34 21 6 C19.31816052 5.76712992 17.6287584 5.58735834 15.9375 5.4375 C15.01839844 5.35371094 14.09929688 5.26992188 13.15234375 5.18359375 C12.08693359 5.09271484 12.08693359 5.09271484 11 5 C11 4.34 11 3.68 11 3 C7.37 2.67 3.74 2.34 0 2 C0 1.34 0 0.68 0 0 Z " fill="#CDE96C" transform="translate(880,38)"/>
<path d="M0 0 C-0.66 0 -1.32 0 -2 0 C-2.66 1.32 -3.32 2.64 -4 4 C-5.32 4 -6.64 4 -8 4 C-7.67 5.98 -7.34 7.96 -7 10 C-7.598125 9.649375 -8.19625 9.29875 -8.8125 8.9375 C-11.10813214 7.66695302 -11.10813214 7.66695302 -14 9 C-14 9.99 -14 10.98 -14 12 C-14.99 12 -15.98 12 -17 12 C-15.61613025 6.77204763 -12.24038711 4.05057385 -8 1 C-4.84724122 -0.8125411 -3.48218392 -1.24363712 0 0 Z " fill="#C0E649" transform="translate(69,52)"/>
<path d="M0 0 C0 0.33 0 0.66 0 1 C-0.92232422 1.07347656 -0.92232422 1.07347656 -1.86328125 1.1484375 C-2.67152344 1.22320312 -3.47976562 1.29796875 -4.3125 1.375 C-5.51326172 1.47941406 -5.51326172 1.47941406 -6.73828125 1.5859375 C-9.27224441 1.89564426 -9.27224441 1.89564426 -12 4 C-15.00268555 4.22705078 -15.00268555 4.22705078 -18.63671875 4.1953125 C-20.58481445 4.18564453 -20.58481445 4.18564453 -22.57226562 4.17578125 C-23.94401307 4.1590706 -25.31575786 4.14214071 -26.6875 4.125 C-28.07095718 4.11496674 -29.45442127 4.10584149 -30.83789062 4.09765625 C-34.22543452 4.07404967 -37.61263072 4.04112037 -41 4 C-41 3.67 -41 3.34 -41 3 C-27.3755152 0.98373285 -13.79603786 -0.29847197 0 0 Z " fill="#C8E861" transform="translate(209,32)"/>
<path d="M0 0 C1.32 0.33 2.64 0.66 4 1 C-5.9662354 6.8293075 -15.63367966 7.1650134 -27 5 C-27 4.67 -27 4.34 -27 4 C-18.42 3.67 -9.84 3.34 -1 3 C-0.67 2.01 -0.34 1.02 0 0 Z " fill="#CFEA76" transform="translate(955,95)"/>
<path d="M0 0 C7.79311062 -0.13852709 15.43110717 0.26366508 23.1875 1 C24.75854492 1.14308594 24.75854492 1.14308594 26.36132812 1.2890625 C28.90799269 1.52163461 31.45415315 1.75866925 34 2 C34 2.33 34 2.66 34 3 C30.20840036 3.05886171 26.41692081 3.09388224 22.625 3.125 C21.03365234 3.15013672 21.03365234 3.15013672 19.41015625 3.17578125 C12.68730739 3.21702572 6.52888452 2.62170836 0 1 C0 0.67 0 0.34 0 0 Z " fill="#DBF094" transform="translate(806,30)"/>
<path d="M0 0 C10.02355489 -0.20272358 19.99847189 0.41960044 30 1 C30 1.33 30 1.66 30 2 C19.57969583 3.24156816 10.25874404 3.44463688 0 1 C0 0.67 0 0.34 0 0 Z " fill="#D3EC83" transform="translate(716,24)"/>
<path d="M0 0 C0 0.33 0 0.66 0 1 C-3.91511815 1.53294568 -7.83225534 2.04924855 -11.75 2.5625 C-12.86117187 2.71396484 -13.97234375 2.86542969 -15.1171875 3.02148438 C-16.18710938 3.16005859 -17.25703125 3.29863281 -18.359375 3.44140625 C-19.34389648 3.57232666 -20.32841797 3.70324707 -21.34277344 3.83813477 C-23.85799021 3.99134946 -25.62146534 3.77228356 -28 3 C-18.87208689 -0.85298845 -9.69888308 -0.28526127 0 0 Z " fill="#D1EC7B" transform="translate(225,77)"/>
<path d="M0 0 C-2.99598439 1.99732292 -4.02492507 2.31106679 -7.44921875 2.6328125 C-8.72055664 2.75849609 -8.72055664 2.75849609 -10.01757812 2.88671875 C-10.89865234 2.96535156 -11.77972656 3.04398437 -12.6875 3.125 C-14.02651367 3.25455078 -14.02651367 3.25455078 -15.39257812 3.38671875 C-17.5944515 3.59866378 -19.79676609 3.80279012 -22 4 C-21.67 3.34 -21.34 2.68 -21 2 C-13.93910871 -0.08354169 -7.32557399 -0.22311393 0 0 Z " fill="#CAE86B" transform="translate(108,93)"/>
<path d="M0 0 C-4.1196377 1.29243536 -7.66831683 2.26252625 -12 2 C-12 2.66 -12 3.32 -12 4 C-15.96 3.67 -19.92 3.34 -24 3 C-24 2.67 -24 2.34 -24 2 C-20.75198175 1.46626918 -17.50138509 0.95028732 -14.25 0.4375 C-13.32960937 0.28603516 -12.40921875 0.13457031 -11.4609375 -0.02148438 C-10.12675781 -0.2293457 -10.12675781 -0.2293457 -8.765625 -0.44140625 C-7.94868164 -0.57232666 -7.13173828 -0.70324707 -6.29003906 -0.83813477 C-3.93889793 -1.00431883 -2.23573504 -0.70259545 0 0 Z " fill="#D5ED8A" transform="translate(168,37)"/>
<path d="M0 0 C5.61 0.66 11.22 1.32 17 2 C11.76528286 4.61735857 8.16025381 4.62843747 2.5625 3 C1.716875 2.67 0.87125 2.34 0 2 C0 1.34 0 0.68 0 0 Z " fill="#D1EA7D" transform="translate(896,41)"/>
<path d="M0 0 C2.79322218 0.08672746 5.58312528 0.19355357 8.375 0.3125 C9.1690625 0.33505859 9.963125 0.35761719 10.78125 0.38085938 C12.86215581 0.47785075 14.93441332 0.72994825 17 1 C17.66 1.99 18.32 2.98 19 4 C16.39442509 3.71815415 13.79099602 3.42497289 11.1875 3.125 C10.44951172 3.04636719 9.71152344 2.96773438 8.95117188 2.88671875 C5.28493819 2.45539714 3.12048255 2.0803217 0 0 Z " fill="#CDE973" transform="translate(883,88)"/>
<path d="M0 0 C1.81242052 -0.02687279 3.62495233 -0.04633715 5.4375 -0.0625 C6.44683594 -0.07410156 7.45617187 -0.08570312 8.49609375 -0.09765625 C11 0 11 0 12 1 C14.32817964 1.36760731 16.6618385 1.70241581 19 2 C19 2.33 19 2.66 19 3 C12.35590042 3.21432579 6.46794133 2.51233701 0 1 C0 0.67 0 0.34 0 0 Z " fill="#CBE86C" transform="translate(806,30)"/>
<path d="M0 0 C0.66 0.33 1.32 0.66 2 1 C0.625 3.5 0.625 3.5 -1 6 C-1.66 6 -2.32 6 -3 6 C-3 6.99 -3 7.98 -3 9 C-3.99 9 -4.98 9 -6 9 C-4.68775452 5.06326356 -3.08089673 2.77280706 0 0 Z " fill="#CBE86E" transform="translate(58,55)"/>
<path d="M0 0 C5.75 1.625 5.75 1.625 8 5 C6.68 5.33 5.36 5.66 4 6 C3.67 5.01 3.34 4.02 3 3 C2.01 2.67 1.02 2.34 0 2 C0 1.34 0 0.68 0 0 Z " fill="#CAE85F" transform="translate(952,54)"/>
<path d="M0 0 C3.63 0.33 7.26 0.66 11 1 C11 1.33 11 1.66 11 2 C4.565 2.495 4.565 2.495 -2 3 C-1.34 2.67 -0.68 2.34 0 2 C0 1.34 0 0.68 0 0 Z " fill="#D3EC7F" transform="translate(136,87)"/>
<path d="M0 0 C3.3 0.33 6.6 0.66 10 1 C10.33 1.99 10.66 2.98 11 4 C7.37 3.01 3.74 2.02 0 1 C0 0.67 0 0.34 0 0 Z " fill="#CFEB72" transform="translate(902,92)"/>
</svg>
